first trial
nRows=19
nColumns=38

# SIMM Motion File Header:
name Sujet_03_velo_80.mvnx
datacolumns 38
datarows 19
otherdata 1
range 0.0000 0.3000
endheader
time pelvis_tilt  pelvis_list  pelvis_rotation  pelvis_tx  pelvis_ty  pelvis_tz  hip_flexion_r  hip_adduction_r  hip_rotation_r  knee_angle_r  ankle_angle_r  subtalar_angle_r  mtp_angle_r  hip_flexion_l  hip_adduction_l  hip_rotation_l  knee_angle_l  ankle_angle_l  subtalar_angle_l  mtp_angle_l  lumbar_extension  lumbar_bending  lumbar_rotation  arm_flex_r  arm_add_r  arm_rot_r  elbow_flex_r  pro_sup_r  wrist_flex_r  wrist_dev_r  arm_flex_l  arm_add_l  arm_rot_l  elbow_flex_l  pro_sup_l  wrist_flex_l  wrist_dev_l
0.0000	-23.0138	-0.6564	-87.4318	0.0000	1.2500	-0.0000	52.2841	4.2634	1.0622	51.7761	-8.0833	0.7813	-0.0000	94.8545	-11.0419	-2.4119	102.6595	7.0870	-1.7653	-0.0000	-13.6957	-0.8134	-1.1803	74.4446	9.6798	16.2597	-0.4828	65.7797	-18.6315	-14.8562	78.6858	0.0292	16.8892	1.5065	74.5719	-27.3525	-15.9619	
0.0170	-22.6255	-0.4617	-87.3722	0.0000	1.2500	-0.0000	52.8270	4.1449	1.1214	55.3989	-7.4846	1.8340	0.0000	92.9572	-10.9667	-1.6822	99.0613	7.8259	-2.2776	0.0000	-13.8829	-0.8403	-1.2210	74.6608	9.7433	16.0479	-0.5236	65.9523	-18.6055	-14.7772	78.6900	-0.0928	17.1316	1.4628	74.3204	-27.3303	-15.9876	
0.0340	-22.2370	-0.2679	-87.3141	0.0000	1.2500	-0.0000	53.3698	4.0285	1.1838	59.0161	-6.8845	2.8841	0.0000	91.0603	-10.9042	-0.9492	95.4660	8.5306	-2.7393	-0.0000	-14.0700	-0.8670	-1.2621	74.8774	9.8067	15.8362	-0.5642	66.1249	-18.5794	-14.6982	78.6947	-0.2147	17.3739	1.4188	74.0689	-27.3081	-16.0133	
0.0500	-21.9155	-0.1852	-87.3229	0.0000	1.2500	-0.0000	54.2799	3.9677	1.1609	62.8659	-6.3214	3.6513	-0.0000	88.9692	-10.7763	-0.6024	91.6717	9.0358	-2.9136	-0.0000	-14.2274	-0.8548	-1.2872	75.0885	9.9094	15.6557	-0.6156	66.3056	-18.5724	-14.6441	78.6803	-0.3095	17.5141	1.3758	73.8914	-27.2793	-16.0328	
0.0670	-21.6902	-0.2736	-87.4309	0.0000	1.2500	-0.0000	55.7295	3.9919	0.9729	67.0815	-5.9358	3.9989	-0.0000	86.6375	-10.5182	-0.8504	87.6657	9.4034	-2.6349	-0.0000	-14.3421	-0.7820	-1.2919	75.2968	10.0867	15.5101	-0.6987	66.5097	-18.5917	-14.6275	78.6377	-0.3615	17.4812	1.3368	73.8460	-27.2460	-16.0444	
0.0840	-21.5314	-0.4714	-87.6036	0.0000	1.2500	-0.0000	57.5465	4.0595	0.6872	71.5378	-5.5891	4.0650	0.0000	84.1173	-10.1615	-1.4797	83.4813	9.6124	-2.1255	0.0000	-14.4276	-0.6706	-1.2803	75.4992	10.3035	15.3946	-0.7928	66.7219	-18.6300	-14.6358	78.5756	-0.3862	17.3461	1.2991	73.8744	-27.2062	-16.0498	
0.1000	-21.4196	-0.7065	-87.8044	0.0000	1.2500	-0.0000	59.5818	4.1224	0.4369	76.0895	-4.9026	3.9816	-0.0000	81.3588	-9.7702	-2.2465	78.9699	9.3807	-1.7298	-0.0000	-14.4937	-0.5471	-1.2485	75.6814	10.4933	15.3278	-0.8460	66.9047	-18.6851	-14.6558	78.5022	-0.4030	17.2188	1.2551	73.8760	-27.1467	-16.0481	
0.1170	-21.3557	-0.9696	-88.0064	0.0000	1.2500	-0.0000	61.8208	4.1614	0.2581	80.8543	-3.6081	3.7689	-0.0000	78.2899	-9.3417	-3.1837	73.8727	8.4641	-1.6092	0.0000	-14.5417	-0.4077	-1.1951	75.8357	10.6118	15.3230	-0.8243	67.0452	-18.7587	-14.6831	78.4176	-0.4119	17.1278	1.1973	73.8138	-27.0534	-16.0307	
0.1340	-21.3382	-1.2708	-88.2371	0.0000	1.2500	-0.0000	64.2787	4.1966	0.1092	85.7205	-1.9758	3.4114	-0.0000	74.9905	-8.8473	-4.2524	68.4395	7.0950	-1.5802	0.0000	-14.5706	-0.2562	-1.1215	75.9697	10.7035	15.3679	-0.7619	67.1563	-18.8489	-14.7221	78.3216	-0.4129	17.0444	1.1327	73.7244	-26.9404	-16.0062	
0.1500	-21.3435	-1.5663	-88.5425	0.0000	1.2500	-0.0000	66.8511	4.2557	0.0113	90.1951	-0.4339	2.9837	0.0000	71.6283	-8.3473	-5.1146	63.2644	5.7026	-1.4570	-0.0000	-14.5870	-0.1306	-1.0284	76.0915	10.8354	15.4434	-0.7092	67.2394	-18.9486	-14.7734	78.2216	-0.4259	16.9936	1.0750	73.6169	-26.8368	-15.9987	
0.1670	-21.3715	-1.8472	-88.9642	0.0000	1.2500	-0.0000	69.5614	4.3620	-0.0038	94.1310	0.8397	2.5325	-0.0000	68.1419	-7.8730	-5.7314	58.4092	4.3456	-1.0275	-0.0000	-14.5925	-0.0439	-0.9117	76.2055	11.0401	15.5823	-0.6777	67.2663	-19.0564	-14.8419	78.1338	-0.4586	16.9900	1.0285	73.4864	-26.7543	-16.0227	
0.1840	-21.4213	-2.1232	-89.4610	0.0000	1.2500	-0.0000	72.3881	4.5085	0.0157	97.6718	2.0167	2.0141	-0.0000	64.5844	-7.4129	-6.1582	53.8183	2.9752	-0.5133	-0.0000	-14.5855	0.0169	-0.7756	76.3068	11.2847	15.7521	-0.6556	67.2654	-19.1736	-14.9228	78.0416	-0.5034	17.0189	0.9882	73.3378	-26.6813	-16.0637	
0.2000	-21.4685	-2.3785	-89.9533	0.0000	1.2500	-0.0000	75.1590	4.6741	-0.0231	100.7562	3.1978	1.3632	0.0000	61.2805	-7.0159	-6.2090	49.9111	1.8567	-0.3904	0.0000	-14.5665	0.0527	-0.6335	76.3896	11.5372	15.8361	-0.6579	67.3240	-19.2971	-15.0023	77.9033	-0.5577	17.0608	0.9535	73.1948	-26.6125	-16.1031	
0.2170	-21.5020	-2.6104	89.5612	0.0000	1.2500	-0.0000	77.8716	4.8468	-0.1221	103.4519	4.4633	0.5175	-0.0000	58.2436	-6.7477	-5.7138	46.7363	1.1139	-1.0133	0.0000	-14.5282	0.0606	-0.4865	76.4613	11.8109	15.7484	-0.7049	67.5149	-19.4331	-15.0754	77.6747	-0.6309	17.1321	0.9132	73.0486	-26.5423	-16.1374	
0.2340	-21.5337	-2.8214	89.0803	0.0000	1.2500	-0.0000	80.5277	5.0323	-0.2783	105.6880	5.7438	-0.4671	0.0000	55.4428	-6.6084	-4.8579	44.2215	0.6089	-2.0358	-0.0000	-14.4773	0.0439	-0.3334	76.5155	12.0924	15.5746	-0.7769	67.7651	-19.5756	-15.1474	77.3998	-0.7135	17.2162	0.8786	72.9083	-26.4762	-16.1700	
0.2500	-21.5753	-3.0020	88.6788	0.0000	1.2500	-0.0000	82.9592	5.2211	-0.5603	107.1938	6.9163	-1.4816	0.0000	53.1390	-6.5428	-3.9788	42.6058	0.2161	-2.8835	0.0000	-14.4353	0.0118	-0.1845	76.5259	12.3107	15.4551	-0.8288	67.9432	-19.7027	-15.2189	77.1694	-0.7741	17.2444	0.8840	72.8253	-26.4259	-16.1928	
0.2670	-21.6441	-3.1475	88.3800	0.0000	1.2500	-0.0000	85.1745	5.3976	-1.0296	107.8545	7.9918	-2.5338	0.0000	51.4463	-6.4878	-3.0313	42.0235	-0.1045	-3.4224	-0.0000	-14.4037	-0.0389	-0.0335	76.4554	12.4417	15.4622	-0.8346	67.9936	-19.8105	-15.2916	76.9943	-0.7987	17.1409	0.9601	72.8563	-26.3975	-16.2039	
0.2840	-21.7243	-3.2629	88.1602	0.0000	1.2500	-0.0000	87.1647	5.5636	-1.6087	107.7860	8.9564	-3.6182	0.0000	50.2555	-6.4955	-2.0509	42.3315	-0.3034	-3.7874	0.0000	-14.3806	-0.1056	0.1133	76.3409	12.5093	15.5239	-0.8196	67.9720	-19.9029	-15.3637	76.8636	-0.8015	16.9821	1.0770	72.9450	-26.3849	-16.2052	
0.3000	-21.7790	-3.3516	88.0234	0.0000	1.2500	-0.0000	88.7356	5.7420	-2.1502	107.0621	9.6420	-4.6036	-0.0000	49.5018	-6.6428	-1.4893	43.3853	-0.3660	-3.8078	0.0000	-14.3821	-0.1703	0.2272	76.2675	12.5145	15.5650	-0.8152	67.9133	-19.9697	-15.4306	76.8357	-0.7941	16.9279	1.1788	72.9737	-26.3805	-16.1942	
